<svg width="167" height="178" viewBox="0 0 167 178" fill="none" xmlns="http://www.w3.org/2000/svg">
<path d="M83.3047 148C121.984 148 153.5 116.614 153.5 78.0651C153.37 39.386 121.984 8 83.3047 8C44.4954 8 13.1094 39.386 13.1094 77.9349C13.1094 116.614 44.4954 148 83.3047 148Z" fill="#EAEEF9"/>
<path d="M155.195 53.5814C158.144 53.5814 160.535 51.1908 160.535 48.2419C160.535 45.2929 158.144 42.9023 155.195 42.9023C152.246 42.9023 149.855 45.2929 149.855 48.2419C149.855 51.1908 152.246 53.5814 155.195 53.5814Z" fill="#EAEEF9"/>
<path d="M163.01 32.7461C165.024 32.7461 166.656 31.1136 166.656 29.0996C166.656 27.0857 165.024 25.4531 163.01 25.4531C160.996 25.4531 159.363 27.0857 159.363 29.0996C159.363 31.1136 160.996 32.7461 163.01 32.7461Z" fill="#EAEEF9"/>
<path d="M7.11975 124.948C10.8599 124.948 13.8918 121.917 13.8918 118.176C13.8918 114.436 10.8599 111.404 7.11975 111.404C3.37963 111.404 0.347656 114.436 0.347656 118.176C0.347656 121.917 3.37963 124.948 7.11975 124.948Z" fill="#EAEEF9"/>
<g filter="url(#filter0_d_4932_26730)">
<path d="M132.548 48.593V133.415C132.548 139.596 127.646 144.497 121.465 144.497H45.1682C38.9877 144.497 34.0859 139.596 34.0859 133.415V22.3792C34.0859 16.1987 38.9877 11.2969 45.1682 11.2969H95.4647C98.2353 11.2969 100.793 12.3625 102.711 14.2806L129.564 41.1338C131.482 43.265 132.548 45.8224 132.548 48.593Z" fill="url(#paint0_linear_4932_26730)"/>
</g>
<g filter="url(#filter1_d_4932_26730)">
<path d="M100.52 12.6113V35.9749C100.52 40.4949 104.347 44.111 108.697 44.111H131.553C131.06 43.0509 130.391 42.0529 129.564 41.1341L102.711 14.2809C102.051 13.6204 101.314 13.061 100.52 12.6113Z" fill="#D5DDEA"/>
</g>
<path d="M67.0089 121.4H49.2366C48.5735 121.4 48.043 120.695 48.043 119.85C48.043 119.004 48.5735 118.299 49.2366 118.299H67.0089C67.672 118.299 68.2025 119.004 68.2025 119.85C68.2025 120.836 67.672 121.4 67.0089 121.4Z" fill="#D5DDEA"/>
<path d="M89.7373 34.5585H49.7692C48.8397 34.5585 48.043 33.8428 48.043 33.0078C48.043 32.1728 48.8397 31.457 49.7692 31.457H89.7373C90.6668 31.457 91.4635 32.1728 91.4635 33.0078C91.4635 33.8428 90.6668 34.5585 89.7373 34.5585Z" fill="#D6DCE8"/>
<path d="M65.068 43.8632H49.7587C48.8348 43.8632 48.043 43.1475 48.043 42.3125C48.043 41.4774 48.8348 40.7617 49.7587 40.7617H64.9361C65.8599 40.7617 66.6518 41.4774 66.6518 42.3125C66.6518 43.1475 65.8599 43.8632 65.068 43.8632Z" fill="#D6DCE8"/>
<path d="M118.124 98.1387H71.5184H66.3818H50.8466C50.2202 98.1387 49.5938 98.7848 49.5938 99.6894C49.5938 100.465 50.0949 101.24 50.8466 101.24H66.3818H71.5184H118.124C118.75 101.24 119.377 100.594 119.377 99.6894C119.251 98.7848 118.75 98.1387 118.124 98.1387Z" fill="#D6DCE8"/>
<path d="M118.122 87.2832H100.801H94.9025H50.8488C50.2213 87.2832 49.5938 87.9293 49.5938 88.8339C49.5938 89.6093 50.0958 90.3847 50.8488 90.3847H94.9025H100.801H118.122C118.749 90.3847 119.377 89.7385 119.377 88.8339C119.251 87.9293 118.749 87.2832 118.122 87.2832Z" fill="#D6DCE8"/>
<path d="M118.235 76.4277H113.734H109.233H50.8441C50.2189 76.4277 49.5938 77.0739 49.5938 77.9785C49.5938 78.7538 50.0939 79.5292 50.8441 79.5292H109.233H114.234H118.11C118.736 79.5292 119.361 78.8831 119.361 77.9785C119.486 77.2031 118.861 76.4277 118.235 76.4277Z" fill="#D6DCE8"/>
<path d="M118.137 65.5723H103.635H100.041H50.8332C50.2135 65.5723 49.5938 66.2184 49.5938 67.123C49.5938 67.8984 50.0895 68.6737 50.8332 68.6737H100.041H103.635H118.013C118.881 68.6737 119.377 68.0276 119.377 67.123C119.377 66.3476 118.881 65.5723 118.137 65.5723Z" fill="#D6DCE8"/>
<path d="M118.92 144.744C134.057 144.744 146.328 132.473 146.328 117.336C146.328 102.199 134.057 89.9277 118.92 89.9277C103.783 89.9277 91.5117 102.199 91.5117 117.336C91.5117 132.473 103.783 144.744 118.92 144.744Z" fill="url(#paint1_linear_4932_26730)"/>
<path d="M120.587 106.34L127.451 113.629C128.259 114.486 128.259 115.987 127.451 116.844C126.644 117.702 125.231 117.702 124.322 116.844L121.193 113.629V125.419C121.193 126.705 120.183 127.777 118.972 127.777C117.76 127.777 116.751 126.705 116.751 125.419V113.629L113.621 116.844C112.814 117.702 111.4 117.702 110.492 116.844C109.987 116.308 109.785 115.772 109.785 115.237C109.785 114.701 109.987 113.95 110.492 113.629L117.356 106.34C117.659 106.019 118.366 105.59 118.871 105.59C119.375 105.59 120.284 105.804 120.587 106.34Z" fill="white"/>
<defs>
<filter id="filter0_d_4932_26730" x="12.0859" y="0.296875" width="142.461" height="177.201" filterUnits="userSpaceOnUse" color-interpolation-filters="sRGB">
<feFlood flood-opacity="0" result="BackgroundImageFix"/>
<feColorMatrix in="SourceAlpha" type="matrix" values="0 0 0 0 0 0 0 0 0 0 0 0 0 0 0 0 0 0 127 0" result="hardAlpha"/>
<feOffset dy="11"/>
<feGaussianBlur stdDeviation="11"/>
<feColorMatrix type="matrix" values="0 0 0 0 0.397708 0 0 0 0 0.47749 0 0 0 0 0.575 0 0 0 0.27 0"/>
<feBlend mode="normal" in2="BackgroundImageFix" result="effect1_dropShadow_4932_26730"/>
<feBlend mode="normal" in="SourceGraphic" in2="effect1_dropShadow_4932_26730" result="shape"/>
</filter>
<filter id="filter1_d_4932_26730" x="78.5195" y="1.61133" width="75.0312" height="75.5" filterUnits="userSpaceOnUse" color-interpolation-filters="sRGB">
<feFlood flood-opacity="0" result="BackgroundImageFix"/>
<feColorMatrix in="SourceAlpha" type="matrix" values="0 0 0 0 0 0 0 0 0 0 0 0 0 0 0 0 0 0 127 0" result="hardAlpha"/>
<feOffset dy="11"/>
<feGaussianBlur stdDeviation="11"/>
<feColorMatrix type="matrix" values="0 0 0 0 0.397708 0 0 0 0 0.47749 0 0 0 0 0.575 0 0 0 0.27 0"/>
<feBlend mode="normal" in2="BackgroundImageFix" result="effect1_dropShadow_4932_26730"/>
<feBlend mode="normal" in="SourceGraphic" in2="effect1_dropShadow_4932_26730" result="shape"/>
</filter>
<linearGradient id="paint0_linear_4932_26730" x1="83.2847" y1="8.21582" x2="83.2847" y2="145.933" gradientUnits="userSpaceOnUse">
<stop stop-color="#FDFEFF"/>
<stop offset="0.9964" stop-color="#ECF0F5"/>
</linearGradient>
<linearGradient id="paint1_linear_4932_26730" x1="91.4866" y1="117.342" x2="146.338" y2="117.342" gradientUnits="userSpaceOnUse">
<stop stop-color="#B0BACC"/>
<stop offset="1" stop-color="#969EAE"/>
</linearGradient>
</defs>
</svg>
